<svg width="222" height="52" viewBox="0 0 222 52" fill="none" xmlns="http://www.w3.org/2000/svg">
<path d="M68.9441 8.26709C90.7915 8.26709 90.7915 8.26709 94.5462 11.6386C97.4523 14.7864 98.1213 17.9507 98.0362 22.1673C97.8801 25.0287 96.7391 27.8693 94.7353 29.9397C91.6906 32.5473 88.276 33.5432 84.3077 33.5256C83.9114 33.5248 83.5151 33.5239 83.1068 33.523C82.6094 33.5199 82.1119 33.5168 81.5993 33.5136C80.0104 33.5066 78.4215 33.4996 76.7844 33.4923C76.7844 36.7546 76.7844 40.0168 76.7844 43.3779C74.1971 43.3779 71.6098 43.3779 68.9441 43.3779C68.9441 31.7913 68.9441 20.2048 68.9441 8.26709Z" fill="#3D4347"/>
<path d="M156.252 16.3631C156.719 16.3526 156.719 16.3526 157.195 16.3418C161.068 16.3198 164.166 17.6498 167.012 20.262C170.352 23.7699 170.527 27.7834 170.527 32.4698C163.777 32.4698 157.028 32.4698 150.074 32.4698C151.447 35.6391 151.447 35.6391 153.942 37.318C156.728 38.1346 159.372 37.7554 161.997 36.6176C162.692 36.2164 163.174 35.7912 163.709 35.1968C164.895 35.7135 165.739 36.4163 166.692 37.2847C166.964 37.5317 167.237 37.7787 167.518 38.0331C167.723 38.222 167.929 38.411 168.141 38.6057C166.995 41.1552 164.746 42.2697 162.292 43.3847C158.293 44.7635 153.532 44.4997 149.733 42.6962C146.465 40.8835 143.976 38.2775 142.8 34.6829C142.496 33.0746 142.427 31.5049 142.404 29.8706C142.398 29.5697 142.391 29.2688 142.385 28.9588C142.419 25.4398 143.992 22.6137 146.324 20.0276C149.11 17.3026 152.499 16.3838 156.252 16.3631Z" fill="#39C4BB"/>
<path d="M186.229 16.3631C186.517 16.3605 186.806 16.3578 187.103 16.3551C190.222 16.3647 193.353 16.9477 195.736 19.0928C198.412 21.9598 198.628 24.6792 198.579 28.4644C198.578 28.8918 198.576 29.3192 198.575 29.7596C198.57 30.8872 198.561 32.0146 198.549 33.1421C198.539 34.2961 198.534 35.4502 198.529 36.6043C198.518 38.8622 198.5 41.1201 198.479 43.378C196.117 43.378 193.755 43.378 191.321 43.378C191.152 42.1968 191.152 42.1968 190.98 40.9918C190.803 41.1315 190.626 41.2713 190.443 41.4152C187.4 43.7666 184.589 44.3581 180.753 44.0597C178.081 43.4919 175.808 42.2927 174.277 39.9692C173.321 38.0998 172.925 36.2624 173.254 34.1742C174.053 31.7846 175.483 30.1271 177.728 28.9757C179.376 28.1936 180.746 27.9913 182.558 28.005C182.919 28.0057 182.919 28.0057 183.287 28.0065C184.054 28.0084 184.822 28.0126 185.59 28.017C186.11 28.0187 186.631 28.0203 187.152 28.0216C188.428 28.0254 189.704 28.0313 190.98 28.0383C190.874 27.4913 190.767 26.9445 190.66 26.3978C190.601 26.0933 190.542 25.7888 190.48 25.475C190.306 24.5906 190.306 24.5906 189.957 23.6068C188.218 22.9417 186.587 22.7937 184.737 22.7972C184.484 22.797 184.23 22.7969 183.969 22.7967C182.152 22.8328 180.687 23.1447 179.042 23.957C178.366 24.2891 177.738 24.4726 177.004 24.6295C176.642 23.9226 176.288 23.2116 175.938 22.499C175.741 22.1035 175.543 21.708 175.339 21.3006C174.958 20.198 174.958 20.198 175.119 19.4284C175.833 18.6144 176.532 18.3373 177.536 17.9397C177.874 17.8017 178.212 17.6637 178.56 17.5216C181.137 16.6597 183.515 16.3382 186.229 16.3631Z" fill="#38C4BB"/>
<path d="M2.23838 0.0364673C2.62517 0.0342925 3.01195 0.0321178 3.41045 0.0298771C3.83157 0.0294977 4.25268 0.0291184 4.68656 0.0287276C5.33032 0.0270257 5.33032 0.0270257 5.98709 0.0252894C6.89695 0.0235596 7.80678 0.0226171 8.71664 0.0228187C9.88399 0.0228534 11.0513 0.0182 12.2186 0.012329C13.3298 0.00763298 14.441 0.00782657 15.5522 0.00742246C15.9726 0.00497305 16.393 0.00252364 16.8262 0C17.408 0.00157315 17.408 0.00157315 18.0015 0.00317808C18.5155 0.00244944 18.5155 0.00244944 19.0398 0.00170607C19.8571 0.0859851 19.8571 0.0859851 20.5389 0.767749C20.6255 1.56985 20.6255 1.56985 20.6271 2.58667C20.6293 2.9666 20.6314 3.34654 20.6336 3.73798C20.6322 4.14988 20.6309 4.56178 20.6294 4.98616C20.6304 5.61785 20.6304 5.61785 20.6314 6.2623C20.632 7.38287 20.6292 8.50337 20.6254 9.62393C20.6241 10.3117 20.6254 10.9995 20.6278 11.6873C20.632 13.0045 20.6315 14.3215 20.6294 15.6387C20.6308 16.0506 20.6322 16.4625 20.6336 16.8869C20.6315 17.2668 20.6293 17.6468 20.6271 18.0382C20.6266 18.3738 20.626 18.7093 20.6255 19.055C20.5389 19.8571 20.5389 19.8571 19.8571 20.5389C19.055 20.6255 19.055 20.6255 18.0382 20.6271C17.6583 20.6293 17.2783 20.6314 16.8869 20.6336C16.475 20.6322 16.0631 20.6309 15.6387 20.6294C15.007 20.6304 15.007 20.6304 14.3626 20.6314C13.242 20.632 12.1215 20.6292 11.0009 20.6254C10.3131 20.6241 9.62539 20.6254 8.93759 20.6278C7.62042 20.632 6.30334 20.6315 4.98616 20.6294C4.57426 20.6308 4.16236 20.6322 3.73798 20.6336C3.16808 20.6304 3.16808 20.6304 2.58667 20.6271C2.25112 20.6266 1.91557 20.626 1.56985 20.6255C0.767749 20.5389 0.767749 20.5389 0.0859851 19.8571C0.00170607 19.0398 0.00170608 19.0398 0.00317808 18.0015C0.00212931 17.6136 0.00108055 17.2258 0 16.8262C0.00244941 16.4058 0.00489882 15.9853 0.00742246 15.5522C0.00757866 15.1227 0.00773486 14.6932 0.00789579 14.2506C0.00892715 13.3414 0.011255 12.4322 0.015828 11.5229C0.0216254 10.3552 0.0229231 9.18747 0.0226643 8.01971C0.0227791 6.90866 0.0257903 5.79761 0.0287276 4.68656C0.0291069 4.26544 0.0294863 3.84433 0.0298771 3.41045C0.0320519 3.02367 0.0342266 2.63689 0.0364673 2.23838C0.0377667 1.89602 0.0390661 1.55366 0.0404048 1.20092C0.127225 -0.273482 0.95018 0.0413564 2.23838 0.0364673Z" fill="#3E4245"/>
<path d="M36.2195 0.0858914C38.7411 0.0701105 41.2627 0.0579888 43.7843 0.0505677C44.9552 0.0470064 46.126 0.042174 47.2968 0.0344595C48.6421 0.0256506 49.9874 0.0223289 51.3328 0.0193129C51.7543 0.0157941 52.1758 0.0122754 52.61 0.00864997C52.999 0.00859847 53.388 0.00854698 53.7887 0.00849392C54.1324 0.00697999 54.476 0.00546606 54.8301 0.00390625C55.6497 0.0858914 55.6497 0.0858914 56.3315 0.767655C56.4181 1.56976 56.4181 1.56976 56.4197 2.58658C56.4219 2.96651 56.424 3.34644 56.4262 3.73789C56.4248 4.14979 56.4235 4.56169 56.422 4.98607C56.423 5.61776 56.423 5.61776 56.424 6.26221C56.4246 7.38278 56.4218 8.50328 56.418 9.62384C56.4167 10.3116 56.418 10.9994 56.4204 11.6872C56.4246 13.0044 56.4241 14.3214 56.422 15.6386C56.4234 16.0505 56.4248 16.4624 56.4262 16.8868C56.4241 17.2667 56.4219 17.6467 56.4197 18.0381C56.4192 18.3737 56.4186 18.7092 56.4181 19.0549C56.3315 19.857 56.3315 19.857 55.6497 20.5388C54.8476 20.6254 54.8476 20.6254 53.8308 20.627C53.4509 20.6292 53.0709 20.6313 52.6795 20.6335C52.2676 20.6321 51.8557 20.6308 51.4313 20.6293C50.7996 20.6303 50.7996 20.6303 50.1552 20.6313C49.0346 20.6319 47.9141 20.6292 46.7935 20.6253C46.1057 20.624 45.418 20.6253 44.7302 20.6277C43.413 20.6319 42.0959 20.6314 40.7788 20.6293C40.3669 20.6307 39.955 20.6321 39.5306 20.6335C38.9607 20.6303 38.9607 20.6303 38.3793 20.627C38.0437 20.6265 37.7082 20.6259 37.3625 20.6254C36.5604 20.5388 36.5604 20.5388 35.8786 19.857C35.7943 19.0549 35.7943 19.0549 35.7958 18.0381C35.7947 17.6582 35.7937 17.2782 35.7926 16.8868C35.7951 16.4749 35.7975 16.063 35.8 15.6386C35.8002 15.2175 35.8003 14.7964 35.8005 14.3625C35.8018 13.2419 35.8062 12.1214 35.8119 11.0008C35.8165 9.86055 35.8154 8.72027 35.8153 7.57996C35.817 6.71533 35.819 5.8507 35.8213 4.98607C35.8217 4.57417 35.8221 4.16227 35.8225 3.73789C35.8247 3.35796 35.8268 2.97802 35.8291 2.58658C35.8304 2.25103 35.8317 1.91548 35.833 1.56976C35.8786 0.767655 35.8786 0.767655 36.2195 0.0858914Z" fill="#3E4345"/>
<path d="M2.2384 31.7385C2.62518 31.7363 3.01196 31.7341 3.41047 31.7319C3.83158 31.7315 4.2527 31.7311 4.68657 31.7308C5.33034 31.7291 5.33034 31.7291 5.9871 31.7273C6.89697 31.7256 7.80679 31.7246 8.71665 31.7248C9.88401 31.7249 11.0513 31.7202 12.2186 31.7144C13.3298 31.7097 14.441 31.7099 15.5522 31.7094C15.9726 31.707 16.393 31.7046 16.8262 31.702C17.408 31.7036 17.408 31.7036 18.0015 31.7052C18.5155 31.7045 18.5155 31.7045 19.0398 31.7037C19.8571 31.788 19.8571 31.788 20.5389 32.4698C20.6232 33.2589 20.6232 33.2589 20.6217 34.2574C20.6233 34.8171 20.6233 34.8171 20.6249 35.388C20.6224 35.7925 20.62 36.1969 20.6175 36.6136C20.6173 37.0272 20.6172 37.4407 20.617 37.8668C20.616 38.7426 20.6133 39.6183 20.6091 40.494C20.6028 41.8384 20.6021 43.1827 20.6022 44.5271C20.6005 45.3762 20.5985 46.2253 20.5962 47.0744C20.5958 47.4789 20.5954 47.8833 20.595 48.3C20.5928 48.6731 20.5907 49.0462 20.5884 49.4306C20.5865 49.9249 20.5865 49.9249 20.5845 50.4291C20.5389 51.2183 20.5389 51.2183 20.198 51.9C17.6261 51.9079 15.0541 51.914 12.4822 51.9177C11.288 51.9195 10.0939 51.9219 8.89974 51.9258C7.5282 51.9301 6.15666 51.9318 4.78511 51.9333C4.3544 51.9351 3.92369 51.9368 3.47993 51.9387C3.08412 51.9387 2.68831 51.9387 2.28051 51.9387C1.7548 51.9399 1.7548 51.9399 1.21846 51.941C0.426881 51.9 0.426881 51.9 0.0859996 51.5592C0.0522735 50.9543 0.0423698 50.348 0.0418914 49.7422C0.0408168 49.3543 0.0397423 48.9665 0.0386353 48.5668C0.0393253 48.1446 0.0400153 47.7225 0.0407262 47.2875C0.0404001 46.8575 0.040074 46.4275 0.039738 45.9845C0.0395055 45.0732 0.0399685 44.1619 0.0415585 43.2507C0.0435006 42.0802 0.0423827 40.9098 0.0403407 39.7394C0.0388156 38.6265 0.0398821 37.5135 0.0407262 36.4006C0.0400362 35.9784 0.0393462 35.5562 0.0386353 35.1212C0.0397098 34.7333 0.0407843 34.3455 0.0418914 33.9458C0.0421626 33.6024 0.0424338 33.259 0.0427132 32.9052C0.125072 31.4281 0.948782 31.7434 2.2384 31.7385Z" fill="#3D4245"/>
<path d="M114.281 16.7892C116.966 16.387 119.826 15.9889 122.463 16.7892C124.283 18.2461 125.257 20.4071 126.153 22.5166C126.618 23.3875 127.193 23.9639 127.917 24.6294C128.087 24.2732 128.087 24.2732 128.262 23.9097C131.552 17.3315 131.552 17.3315 134.042 16.4178C136.339 16.0984 138.603 16.3475 140.87 16.7892C140.342 17.9137 139.703 18.9231 139.013 19.9556C138.779 20.305 138.546 20.6543 138.306 21.0142C137.941 21.5593 137.941 21.5593 137.568 22.1154C137.331 22.4709 137.094 22.8264 136.849 23.1927C135.377 25.3958 133.878 27.5788 132.348 29.7427C132.825 30.7534 133.377 31.6494 134.021 32.5629C134.216 32.842 134.412 33.1211 134.614 33.4086C134.823 33.7034 135.031 33.9982 135.246 34.302C135.458 34.6042 135.67 34.9065 135.889 35.2179C136.876 36.6213 137.869 38.0204 138.875 39.4099C139.034 39.629 139.192 39.8481 139.355 40.0738C139.649 40.4787 139.944 40.8826 140.241 41.2852C141.211 42.6213 141.211 42.6213 141.211 43.3779C138.517 43.8566 135.668 44.267 133.03 43.3779C130.702 41.4804 129.123 38.5987 127.917 35.8785C127.917 35.6536 127.917 35.4286 127.917 35.1968C127.016 35.998 126.56 36.8049 126.038 37.8852C123.328 42.9841 123.328 42.9841 121.097 43.7125C118.695 44.0086 116.319 43.7781 113.94 43.3779C115.427 40.9884 116.977 38.6495 118.564 36.326C118.748 36.0549 118.933 35.7839 119.123 35.5046C119.305 35.24 119.486 34.9754 119.673 34.7028C119.939 34.3136 119.939 34.3136 120.21 33.9166C120.58 33.3999 120.969 32.8962 121.374 32.4063C121.906 31.7623 122.392 31.1509 122.803 30.4244C122.756 29.508 122.756 29.508 122.122 28.72C122.006 28.541 121.891 28.362 121.772 28.1776C121.349 27.5307 120.906 26.9006 120.46 26.2699C120.124 25.7891 119.789 25.3079 119.455 24.8265C119.279 24.5745 119.104 24.3225 118.923 24.0629C117.965 22.6774 117.028 21.2787 116.092 19.8784C115.822 19.4759 115.822 19.4759 115.546 19.0652C115.38 18.8173 115.215 18.5693 115.044 18.3138C114.897 18.0933 114.749 17.8727 114.597 17.6454C114.281 17.13 114.281 17.13 114.281 16.7892Z" fill="#3C4449"/>
<path d="M206.319 9.97144C208.682 9.97144 211.044 9.97144 213.478 9.97144C213.478 12.3337 213.478 14.6961 213.478 17.13C215.84 17.13 218.203 17.13 220.636 17.13C220.636 18.9298 220.636 20.7297 220.636 22.5841C218.274 22.5841 215.912 22.5841 213.478 22.5841C213.511 24.3978 213.546 26.2112 213.586 28.0248C213.599 28.6414 213.611 29.258 213.622 29.8747C213.637 30.7624 213.657 31.6499 213.678 32.5375C213.682 32.8121 213.686 33.0866 213.69 33.3695C213.727 34.8069 213.845 35.9291 214.501 37.242C215.083 37.2513 215.665 37.2578 216.248 37.2633C216.572 37.2672 216.896 37.2712 217.23 37.2753C218.279 37.241 219.265 37.0953 220.296 36.9011C220.581 37.6818 220.865 38.4631 221.148 39.2447C221.229 39.4666 221.31 39.6885 221.394 39.9171C222 41.5962 222 41.5962 222 42.3552C218.409 43.7288 214.911 45.0204 211.134 43.4844C208.759 42.243 207.552 41.0136 206.6 38.5268C206.153 37.0227 206.15 35.602 206.186 34.0435C206.189 33.5628 206.189 33.5628 206.192 33.0723C206.2 32.0616 206.217 31.0514 206.234 30.0408C206.241 29.3502 206.247 28.6596 206.253 27.9689C206.268 26.2874 206.291 24.6063 206.319 22.9249C204.857 22.9249 203.395 22.9249 201.888 22.9249C201.888 21.0126 201.888 19.1002 201.888 17.13C203.35 17.13 204.813 17.13 206.319 17.13C206.319 14.7676 206.319 12.4053 206.319 9.97144Z" fill="#39C4B9"/>
<path d="M38.9465 3.15381C43.6711 3.15381 48.3957 3.15381 53.2635 3.15381C53.2635 7.87843 53.2635 12.6031 53.2635 17.4708C48.5389 17.4708 43.8143 17.4708 38.9465 17.4708C38.9465 12.7462 38.9465 8.0216 38.9465 3.15381Z" fill="#F1F4F5"/>
<path d="M3.15393 3.15381C7.87855 3.15381 12.6032 3.15381 17.471 3.15381C17.478 5.45284 17.485 7.75188 17.4923 10.1206C17.4954 10.8471 17.4985 11.5737 17.5017 12.3222C17.5027 12.8946 17.5035 13.467 17.5043 14.0394C17.506 14.3394 17.5077 14.6394 17.5095 14.9486C17.5096 15.6758 17.4922 16.403 17.471 17.13C17.1301 17.4708 17.1301 17.4708 15.8084 17.5095C15.2188 17.5095 14.6291 17.5076 14.0395 17.5041C13.7651 17.5038 13.4907 17.5034 13.208 17.5031C12.1789 17.5013 11.1498 17.4965 10.1207 17.4921C6.67215 17.4816 6.67215 17.4816 3.15393 17.4708C3.15393 12.7462 3.15393 8.0216 3.15393 3.15381Z" fill="#F2F5F5"/>
<path d="M3.15393 34.856C7.87855 34.856 12.6032 34.856 17.471 34.856C17.471 39.4681 17.471 44.0802 17.471 48.8321C12.7463 48.8321 8.02172 48.8321 3.15393 48.8321C3.15393 44.22 3.15393 39.6078 3.15393 34.856Z" fill="#F3F7F7"/>
<path d="M102.691 16.7892C105.166 16.7892 107.641 16.7892 110.191 16.7892C110.191 25.5635 110.191 34.3378 110.191 43.378C107.716 43.378 105.241 43.378 102.691 43.378C102.691 34.6037 102.691 25.8294 102.691 16.7892Z" fill="#3F4649"/>
<path d="M76.7844 14.7438C78.2467 14.7157 79.7091 14.6876 81.2158 14.6586C81.6715 14.6462 82.1272 14.6338 82.5967 14.621C85.0326 14.5984 86.6665 14.7497 88.7152 16.1074C90.2483 17.9942 90.5671 19.6598 90.5355 22.0382C90.2782 24.0077 89.2842 25.1998 87.7671 26.4057C85.8258 27.4595 83.5477 27.1565 81.4076 27.1008C79.8819 27.0727 78.3563 27.0446 76.7844 27.0156C76.7844 22.9659 76.7844 18.9162 76.7844 14.7438Z" fill="#FCFCFC"/>
<path d="M42.8041 5.84229C43.1451 5.84407 43.486 5.84586 43.8373 5.84769C44.1687 5.84855 44.5 5.8494 44.8414 5.85027C45.4774 5.85493 45.4774 5.85493 46.1263 5.85968C47.4692 5.86671 48.812 5.87374 50.1956 5.88098C50.1956 8.80575 50.1956 11.7305 50.1956 14.7439C47.3833 14.7439 44.571 14.7439 41.6735 14.7439C41.6665 13.3448 41.6595 11.9457 41.6522 10.5042C41.6491 10.0624 41.646 9.62058 41.6428 9.16538C41.642 8.82019 41.6411 8.475 41.6402 8.11935C41.6385 7.76411 41.6367 7.40887 41.6348 7.04286C41.6861 5.95522 41.7183 5.8955 42.8041 5.84229Z" fill="#3DC4BA"/>
<path d="M7.01157 5.84229C7.35253 5.84407 7.69349 5.84586 8.04478 5.84769C8.37613 5.84855 8.70748 5.8494 9.04887 5.85027C9.68489 5.85493 9.68489 5.85493 10.3338 5.85968C11.6766 5.86671 13.0195 5.87374 14.403 5.88098C14.403 8.80575 14.403 11.7305 14.403 14.7439C11.5908 14.7439 8.77848 14.7439 5.88098 14.7439C5.87395 13.3448 5.86692 11.9457 5.85968 10.5042C5.85658 10.0624 5.85347 9.62058 5.85027 9.16538C5.84942 8.82019 5.84857 8.475 5.84769 8.11935C5.84591 7.76411 5.84412 7.40887 5.84229 7.04286C5.89355 5.95522 5.92572 5.8955 7.01157 5.84229Z" fill="#3CC6BC"/>
<path d="M5.88098 37.583C8.69326 37.583 11.5055 37.583 14.403 37.583C14.403 40.3953 14.403 43.2076 14.403 46.1051C11.5908 46.1051 8.77848 46.1051 5.88098 46.1051C5.88098 43.2928 5.88098 40.4805 5.88098 37.583Z" fill="#38C4BA"/>
<path d="M159.87 22.6307C161.423 23.5992 162.456 24.5442 163.027 26.3338C163.027 26.8963 163.027 27.4587 163.027 28.0382C158.753 28.0382 154.478 28.0382 150.074 28.0382C150.476 25.2254 151.145 24.2601 153.334 22.6054C155.478 21.9426 157.763 21.756 159.87 22.6307Z" fill="#F8FDFA"/>
<path d="M107.805 4.51741C109.021 4.94533 109.653 5.31064 110.489 6.28573C110.99 7.53861 111.107 8.65314 110.873 9.97152C110.155 11.3551 109.587 12.1235 108.145 12.6986C106.752 12.9171 105.341 13.0244 104.072 12.3404C103.075 11.5217 102.409 10.8587 102.269 9.56006C102.201 7.15158 102.201 7.15158 102.968 5.88094C104.581 4.40615 105.703 4.28754 107.805 4.51741Z" fill="#3E4549"/>
<path d="M184.921 32.0957C185.273 32.0968 185.624 32.0979 185.986 32.099C186.539 32.1033 186.539 32.1033 187.102 32.1076C187.659 32.1099 187.659 32.1099 188.226 32.1123C189.144 32.1163 190.062 32.1219 190.98 32.1289C190.999 32.6725 191.013 33.2163 191.025 33.7601C191.033 34.0629 191.042 34.3657 191.05 34.6776C190.931 36.1315 190.354 36.6213 189.275 37.5831C187.611 38.8313 185.866 38.7394 183.862 38.7748C182.578 38.5706 182.018 38.1394 181.094 37.2422C180.559 36.1722 180.633 35.3542 180.753 34.1742C182.089 32.5577 182.875 32.0844 184.921 32.0957Z" fill="#F8FDFB"/>
<path d="M54.4566 38.1796C55.3088 38.2648 55.3088 38.2648 55.9906 38.9465C56.0545 39.8959 56.0777 40.8108 56.0691 41.7602C56.0689 42.1774 56.0689 42.1774 56.0687 42.6031C56.0676 43.1914 56.065 43.7797 56.0607 44.368C56.0545 45.2717 56.0538 46.1753 56.0538 47.0791C56.0522 47.6497 56.0502 48.2203 56.0478 48.7908C56.0475 49.0628 56.0471 49.3348 56.0467 49.615C56.0301 51.5196 56.0301 51.5196 55.6497 51.9001C55.0966 51.9339 54.542 51.9446 53.9879 51.9453C53.6522 51.9458 53.3165 51.9462 52.9706 51.9467C52.6173 51.9453 52.264 51.944 51.9 51.9427C51.3701 51.9446 51.3701 51.9446 50.8294 51.9467C50.4937 51.9462 50.158 51.9458 49.8121 51.9453C49.5019 51.9449 49.1916 51.9446 48.872 51.9442C48.1503 51.9001 48.1503 51.9001 47.8094 51.5592C47.7668 50.3661 47.7668 50.3661 47.8094 49.173C48.1503 48.8321 48.1503 48.8321 49.2275 48.7988C49.6665 48.8028 50.1055 48.8067 50.5578 48.8108C50.9976 48.8139 51.4375 48.817 51.8907 48.8201C52.2312 48.8241 52.5718 48.828 52.9226 48.8321C52.9191 48.5362 52.9155 48.2403 52.9118 47.9355C52.9002 46.839 52.8917 45.7425 52.8852 44.646C52.8818 44.1712 52.8771 43.6964 52.8712 43.2216C52.863 42.5396 52.8594 41.8576 52.8561 41.1756C52.8525 40.765 52.8489 40.3544 52.8453 39.9314C52.9447 38.6658 53.1733 38.3079 54.4566 38.1796Z" fill="#32C1BC"/>
<path d="M40.9918 43.7189C42.2062 43.8041 42.2062 43.8041 43.378 44.0598C43.9807 45.2651 43.7818 46.6524 43.7828 47.9799C43.7869 48.28 43.7911 48.5801 43.7954 48.8894C43.7964 49.3198 43.7964 49.3198 43.7974 49.7589C43.7988 50.0223 43.8002 50.2857 43.8017 50.5571C43.7189 51.2183 43.7189 51.2183 43.0371 51.9C41.8227 51.964 41.8227 51.964 40.6509 51.9C39.8466 51.0957 40.2468 49.0818 40.2461 48.0012C40.2419 47.667 40.2378 47.3328 40.2335 46.9885C40.2325 46.5097 40.2325 46.5097 40.2315 46.0212C40.2301 45.727 40.2287 45.4328 40.2272 45.1298C40.31 44.4006 40.31 44.4006 40.9918 43.7189Z" fill="#37C5BC"/>
<path d="M30.7653 15.0848C31.5749 15.6387 31.5749 15.6387 32.1289 16.4483C32.2834 17.5297 32.3095 18.1748 31.7667 19.1327C30.7174 19.742 29.9032 19.6641 28.7201 19.5162C27.8124 18.755 27.7133 18.2822 27.5696 17.1088C27.6974 16.1074 27.6974 16.1074 28.0809 15.4683C29.0352 14.8957 29.6739 14.9288 30.7653 15.0848Z" fill="#39C7C0"/>
<path d="M27.0156 32.4698C27.8465 33.0024 27.8465 33.0024 28.3792 33.8333C28.3579 35.069 28.3579 35.069 28.0383 36.2195C27.0156 36.9012 27.0156 36.9012 25.8012 36.8373C24.6295 36.5604 24.6295 36.5604 23.9477 35.5377C23.8369 34.4741 23.7733 33.783 24.3312 32.8533C25.2855 32.2807 25.9241 32.3139 27.0156 32.4698Z" fill="#3FC7BB"/>
<path d="M35.7294 32.5549C36.9012 32.8106 36.9012 32.8106 37.583 33.4924C37.7705 35.5555 37.7705 35.5555 37.1995 36.539C36.2415 37.0818 35.5964 37.0557 34.515 36.9012C33.6841 36.3686 33.6841 36.3686 33.1515 35.5377C33.1728 34.302 33.1728 34.302 33.4924 33.1515C34.515 32.4697 34.515 32.4697 35.7294 32.5549Z" fill="#36C2BC"/>
<path d="M19.3671 24.033C20.5389 24.2886 20.5389 24.2886 21.2206 24.9704C21.4082 27.0335 21.4082 27.0335 20.8372 28.017C19.8674 28.5666 19.2465 28.5578 18.1527 28.3792C17.3218 27.6548 17.3218 27.6548 16.7892 26.6748C16.8105 25.5882 16.8105 25.5882 17.1301 24.6295C18.1527 23.9477 18.1527 23.9477 19.3671 24.033Z" fill="#38C7C0"/>
<path d="M39.2874 24.2886C39.9692 25.3113 39.9692 25.3113 39.9052 26.5257C39.6283 27.6975 39.6283 27.6975 38.6056 28.3792C37.4815 28.5522 37.0519 28.4851 36.1129 27.8253C35.5377 27.0157 35.5377 27.0157 35.3672 25.9717C35.5377 24.9704 35.5377 24.9704 36.0703 24.3099C37.2596 23.7915 38.0497 23.9678 39.2874 24.2886Z" fill="#38C4B9"/>
<path d="M29.4018 23.9477C30.2327 24.5016 30.2327 24.5016 30.7653 25.3112C30.7432 26.3972 30.6014 27.0771 30.0197 27.9957C29.0846 28.5761 28.4311 28.5359 27.3565 28.3791C26.4709 27.6116 26.3485 27.1349 26.2061 25.9717C26.3339 24.9703 26.3339 24.9703 26.7174 24.3312C27.6717 23.7586 28.3103 23.7918 29.4018 23.9477Z" fill="#3CC5B7"/>
<path d="M27.3565 41.6736C28.1817 42.3922 28.3494 42.8338 28.507 43.9106C28.3792 44.7415 28.3792 44.7415 28.017 45.3594C26.9837 45.9927 26.1518 45.8907 24.9704 45.7642C24.3099 45.3807 24.3099 45.3807 23.9477 44.7415C23.8148 43.6786 23.7758 42.9995 24.3099 42.0571C25.3592 41.4478 26.1733 41.5257 27.3565 41.6736Z" fill="#39C4BB"/>
<path d="M29.8918 6.11523C31.1062 6.22176 31.1062 6.22176 31.7667 6.60525C32.3007 7.54772 32.2617 8.22679 32.1289 9.2897C31.7667 9.92885 31.7667 9.92885 31.1062 10.3123C29.9131 10.4615 29.9131 10.4615 28.72 10.3123C28.0383 9.75841 28.0383 9.75841 27.6974 8.94881C27.8044 7.1661 27.9791 6.28912 29.8918 6.11523Z" fill="#37C5BE"/>
<path d="M26.0356 32.4271C26.359 32.4412 26.6824 32.4552 27.0156 32.4697C27.1281 32.6947 27.2406 32.9197 27.3565 33.1515C27.019 33.1515 26.6816 33.1515 26.3339 33.1515C26.2425 33.3694 26.1511 33.5874 26.0569 33.812C25.6521 34.515 25.6521 34.515 24.6295 34.8559C24.4164 34.0463 24.4164 34.0463 24.2886 33.1515C24.9703 32.4697 24.9703 32.4697 26.0356 32.4271Z" fill="#35C3B8"/>
<path d="M27.6974 16.1074C28.0348 16.1074 28.3723 16.1074 28.72 16.1074C28.72 16.7824 28.72 17.4573 28.72 18.1527C28.945 18.2652 29.17 18.3777 29.4018 18.4936C29.4018 18.7186 29.4018 18.9436 29.4018 19.1754C29.9642 19.1754 30.5267 19.1754 31.1062 19.1754C31.1062 19.2878 31.1062 19.4003 31.1062 19.5162C28.917 19.6815 28.917 19.6815 28.0596 18.9623C27.6119 17.9617 27.6234 17.1919 27.6974 16.1074Z" fill="#4ACCBD"/>
<path d="M175.64 20.5388C175.865 20.5388 176.09 20.5388 176.322 20.5388C176.434 21.2138 176.547 21.8887 176.663 22.5841C176.888 22.5841 177.113 22.5841 177.344 22.5841C177.558 23.2233 177.558 23.2233 177.685 23.9476C177.46 24.1726 177.235 24.3976 177.004 24.6294C176.773 24.2051 176.546 23.7786 176.322 23.3511C176.195 23.1138 176.069 22.8765 175.938 22.632C175.64 21.9023 175.64 21.9023 175.64 20.5388Z" fill="#2EC1B0"/>
<path d="M185.867 16.4482C184.747 17.1948 184.22 17.2503 182.905 17.3431C182.397 17.3813 182.397 17.3813 181.878 17.4203C181.49 17.4453 181.49 17.4453 181.094 17.4709C181.094 17.2459 181.094 17.0209 181.094 16.7891C182.687 16.3781 184.235 16.4163 185.867 16.4482Z" fill="#42CCC1"/>
<path d="M36.2194 32.4697C35.4363 33.0638 34.6518 33.6284 33.8333 34.1741C33.4268 34.8729 33.4268 34.8729 33.1515 35.5376C33.258 34.3872 33.258 34.3872 33.4924 33.1515C34.5927 32.4179 34.9527 32.4012 36.2194 32.4697Z" fill="#44C8BD"/>
<path d="M201.888 17.4709C202.45 17.4709 203.013 17.4709 203.592 17.4709C203.142 18.3709 202.692 19.2708 202.229 20.198C202.116 20.198 202.004 20.198 201.888 20.198C201.888 19.2981 201.888 18.3981 201.888 17.4709Z" fill="#2AC2B6"/>
<path d="M191.321 33.4924C191.433 33.4924 191.546 33.4924 191.662 33.4924C191.938 34.4086 191.938 34.4086 192.002 35.5377C191.171 36.5178 191.171 36.5178 190.298 37.2421C190.527 35.9446 190.887 34.7359 191.321 33.4924Z" fill="#2EC3B4"/>
</svg>
