<?xml version="1.0" encoding="UTF-8"?><svg id="Camada_2" xmlns="http://www.w3.org/2000/svg" xmlns:xlink="http://www.w3.org/1999/xlink" viewBox="0 0 283.51 83.63"><defs><style>.cls-1{clip-path:url(#clippath-4);}.cls-2{fill:url(#Gradiente_sem_nome_11);}.cls-3{fill:none;}.cls-4{fill:#3d4543;}.cls-5{clip-path:url(#clippath-1);}.cls-6{fill:url(#Gradiente_sem_nome_12);}.cls-7{clip-path:url(#clippath-5);}.cls-8{clip-path:url(#clippath-3);}.cls-9{fill:url(#Gradiente_sem_nome_12-3);}.cls-10{fill:url(#Gradiente_sem_nome_11-2);}.cls-11{fill:url(#Gradiente_sem_nome_12-2);}.cls-12{fill:url(#Gradiente_sem_nome_11-3);}.cls-13{clip-path:url(#clippath-2);}.cls-14{clip-path:url(#clippath);}</style><clipPath id="clippath"><path class="cls-3" d="M190.95,57.37c0-5.74,1.75-10.2,5.24-13.4,3.49-3.19,7.81-4.79,12.95-4.79,3.56,0,6.42.78,8.57,2.33,2.15,1.55,3.23,3.62,3.23,6.21,0,1.9-.58,3.59-1.74,5.07-1.16,1.48-2.57,2.62-4.23,3.4-3.52,1.57-6.57,2.52-9.16,2.85l-.33.04c-.78.09-1.3.88-1.04,1.63.71,2.08,2.12,3.12,4.22,3.12,1.11,0,2.34-.24,3.68-.73,1.34-.49,2.41-.98,3.19-1.49h0c.67-.39,1.53-.22,2,.4l.41.5c.56.71.51,1.45.23,2.03-.19.39-.51.7-.87.94-.23.15-.59.4-1.11.81-1.04.81-2.13,1.52-3.26,2.12-1.13.6-2.58,1.15-4.34,1.63-1.76.49-3.52.73-5.28.73-3.93,0-6.98-1.15-9.13-3.44-2.15-2.29-3.23-5.61-3.23-9.96ZM207.82,51.36c1.34-2.01,2.01-3.7,2.01-5.07s-.39-2.05-1.18-2.05c-1.16,0-2.22.9-3.19,2.71-.74,1.38-1.24,3.2-1.5,5.47-.13,1.13,1.22,1.84,2.07,1.08.6-.53,1.19-1.25,1.79-2.14Z"/></clipPath><linearGradient id="Gradiente_sem_nome_12" x1="187.83" y1="69.02" x2="286.1" y2="47.67" gradientUnits="userSpaceOnUse"><stop offset="0" stop-color="#78c6c0"/><stop offset=".51" stop-color="#4cbbb6"/><stop offset=".67" stop-color="#46b5b1"/><stop offset=".87" stop-color="#38a6a4"/><stop offset="1" stop-color="#2c9999"/></linearGradient><clipPath id="clippath-1"><path class="cls-3" d="M253.28,52.54c-.69,4.14-1.04,7.03-1.04,8.68s.25,2.46.76,2.46l1.34-.37c1.2-.34,2.46.31,2.89,1.49h0c.31.86-.02,1.8-.79,2.3-1.24.8-2.7,1.55-4.37,2.24-2.29.95-4.32,1.42-6.07,1.42-2.45,0-4.16-.86-5.14-2.58-.36-.64-1.17-.87-1.79-.47-3.15,2.03-5.97,3.05-8.44,3.05-2.8,0-4.96-1.02-6.49-3.05-1.53-2.04-2.29-4.95-2.29-8.75,0-5.23,1.34-9.83,4.03-13.81,2.68-3.98,6.22-5.97,10.62-5.97,2.05,0,4.14.49,6.26,1.46.61.28,1.32.03,1.62-.57h0c.21-.42.65-.69,1.12-.68,2.82.1,5.88.76,9.18,1.99.62.23.97.89.78,1.52-.83,2.77-1.55,5.98-2.16,9.63ZM234.89,58.09c0,2.34.16,3.81.49,4.41.32.6.92.9,1.8.9.69,0,1.37-.21,2.03-.64.34-.22.55-.59.56-.99.21-4.87.99-9.95,2.34-15.23.16-.65-.19-1.34-.83-1.51-.4-.11-.83-.16-1.29-.16-.9,0-1.71.51-2.43,1.53-.72,1.02-1.26,2.29-1.63,3.82-.69,2.92-1.04,5.54-1.04,7.88Z"/></clipPath><linearGradient id="Gradiente_sem_nome_12-2" y1="68.53" x2="286.1" y2="47.18" xlink:href="#Gradiente_sem_nome_12"/><clipPath id="clippath-2"><path class="cls-3" d="M280.82,45.22l-3.37-.27c-.52-.04-1,.31-1.12.82-1.72,7.73-2.66,12.25-2.82,13.54-.16,1.34-.24,2.44-.24,3.3s.28,1.28.83,1.28c.47,0,1.25-.22,2.33-.66.77-.31,1.65.01,2.02.75l.35.7c.38.77.18,1.72-.51,2.23-1.27.94-2.76,1.76-4.47,2.46-2.27.93-4.45,1.39-6.56,1.39s-3.78-.54-5.03-1.63c-1.25-1.09-1.87-2.63-1.87-4.62s.58-5.18,1.74-9.58c.93-3.54,1.61-6.35,2.03-8.42.14-.69-.43-1.31-1.12-1.24-.47.04-.99.1-1.56.15-1.21.12-2.26-.82-2.26-2.04v-.5c0-.36.02-.73.06-1.13.1-1,.97-1.75,1.97-1.75h2.85c.57,0,1.04-.45,1.05-1.03.02-1.02.03-2.7.03-5.01l-.05-1.1c-.05-1.04.62-1.99,1.62-2.28,3.32-.97,6.52-1.52,9.61-1.66.95-.04,1.79.65,1.9,1.6.07.62.11,1.36.11,2.22,0,1.57-.22,3.57-.66,6.01-.12.65.38,1.25,1.04,1.25h2.77c1.32,0,2.3,1.25,1.97,2.53l-.24.96c-.27,1.08-1.28,1.8-2.39,1.71Z"/></clipPath><linearGradient id="Gradiente_sem_nome_12-3" x1="187.93" y1="68.63" x2="286.2" y2="47.28" xlink:href="#Gradiente_sem_nome_12"/><clipPath id="clippath-3"><path class="cls-3" d="M51.08,39.33c.09-5.13,4.8-9.35,9.78-9.04,4.7.09,8.86,4.29,8.56,8.98-.05.96-.87,1.7-1.82,1.65-.9-.04-1.6-.76-1.65-1.64-.17-2.55-2.61-4.52-5.07-4.24-2.19.16-4.05,2.15-3.77,4.27.27,4.46-6.24,4.5-6.03.02h0Z"/></clipPath><linearGradient id="Gradiente_sem_nome_11" x1="-5.66" y1="50.59" x2="90.73" y2="38.77" gradientUnits="userSpaceOnUse"><stop offset="0" stop-color="#78c6c0"/><stop offset=".53" stop-color="#4cbbb6"/><stop offset=".71" stop-color="#49b7b3"/><stop offset=".85" stop-color="#3fadaa"/><stop offset=".98" stop-color="#2f9d9c"/><stop offset="1" stop-color="#2c9999"/></linearGradient><clipPath id="clippath-4"><path class="cls-3" d="M26.54,39.4c.09-5.13,4.8-9.35,9.78-9.04,4.7.09,8.86,4.29,8.56,8.98-.05.96-.87,1.7-1.82,1.65-.9-.04-1.6-.76-1.65-1.64-.17-2.55-2.61-4.52-5.07-4.24-2.19.16-4.05,2.15-3.77,4.27.27,4.46-6.24,4.5-6.03.02h0Z"/></clipPath><linearGradient id="Gradiente_sem_nome_11-2" x1="-6.36" y1="50.46" x2="90.02" y2="38.64" xlink:href="#Gradiente_sem_nome_11"/><clipPath id="clippath-5"><path class="cls-3" d="M82.44,31.8c-1.45-8.43-6.12-16.25-12.95-21.35C59.01,1.25,44.12-2.62,30.12,1.88c-5.03,1.58-9.73,4.14-13.73,7.49-3.06,2.47-5.46,5.53-7.84,8.61C1.18,27.35-1.83,40.12,1.12,51.8c5.35,22.47,29.03,36.43,51.35,30.44,22.55-5.9,35.75-28.16,29.97-50.44ZM72.76,40.02c-.05.54-.35,1.98-.41,2.52-.28.98-.57,2.34-.98,3.27-.26.96-.97,2.24-1.35,3.16-4.82,9.37-15.47,14.63-25.87,12.83-9.57-1.54-17.63-8.75-20.43-18.02-1.53-4.83-1.6-10.15-.21-15.17.22-.79-.19-1.65-.97-1.95-.84-.33-1.78.08-2.11.92-1.17,2.94-1.82,6.08-1.97,9.25-2.1.44-4.18,1.2-6.1,2.47-4.2,2.66-5.64,7.62-1.64,11.24,3.1,2.74,7.57,3.1,11.34,2.39.61,1.14,1.29,2.24,2.04,3.29.37.65,1.64,2.08,2.1,2.68.7.84,1.64,1.65,2.39,2.45.84.66,1.79,1.57,2.66,2.17.7.44,2.15,1.52,2.89,1.86.5.28,1.53.82,2.03,1.1,1.04.42,2.14.97,3.2,1.32.79.23,2.53.86,3.33.98.56.13,1.71.35,2.28.48,1.16.14,2.32.29,3.48.37,3.08.17,6.09-.12,8.99-.79-18.29,11.25-43.13,2.34-49.8-18.85-3.2-9.89-2.04-21.22,3.59-30.12,7.36-10.62,21.34-16,33.94-13.92,7.89,1.18,15.14,5.3,20.39,11.17.17.22.35.43.51.65,4.32,5.79,6.94,12.88,6.86,20.13-.04.6-.14,1.52-.17,2.12ZM19.57,46.66c-2.35.73-5.42.94-6.74-1.16-.22-.44-.08-1,.15-1.51,1.08-2.11,3.22-3.57,5.47-4.58.03.78.1,1.56.18,2.33l-3.48,2.01c-.21.12-.33.37-.27.62.07.31.38.5.69.44l3.42-.77c.16.88.35,1.76.59,2.62Z"/></clipPath><linearGradient id="Gradiente_sem_nome_11-3" x1="-3.8" y1="50.59" x2="92.58" y2="38.77" xlink:href="#Gradiente_sem_nome_11"/></defs><g id="Camada_1-2"><path class="cls-4" d="M104.95,36.26c0-.88-.1-1.53-.31-1.94-.18-.37-.55-.87-1.11-1.52-.16-.18-.24-.41-.24-.65h0c0-.38.21-.73.56-.9.93-.44,2.25-.84,3.95-1.2,2.08-.44,3.91-.66,5.48-.66,2.05,0,3.55.08,4.49.23.39.06.71.34.81.73.12.5.19,1.2.19,2.1,0,1.28-.93,5.55-2.79,12.79-.15.57.23,1.14.81,1.23.87.14,1.76.21,2.68.21,2.54,0,4.43-1.28,5.66-3.85,1.23-2.57,1.84-5.47,1.84-8.71,0-5.92-3.7-8.88-11.11-8.88-5.65,0-10.39.89-14.23,2.67-3.84,1.78-5.76,3.97-5.76,6.56,0,1.82,1.16,3.04,3.49,3.66.42.11.72.48.74.92,0,.18.01.36.01.56,0,.03,0,.05,0,.08-.01,3.54-4.19,5.42-6.89,3.13-.09-.07-.17-.15-.26-.23-1.76-1.57-2.64-3.93-2.64-7.08,0-4.86,2.63-8.69,7.88-11.49,5.25-2.8,11.61-4.2,19.09-4.2s13.16,1.15,17.08,3.44c3.91,2.29,5.87,5.76,5.87,10.41s-1.71,8.76-5.14,12.32c-3.43,3.56-8.1,5.34-14.02,5.34-2.07,0-3.87-.23-5.39-.69-.55-.17-1.12.15-1.26.71-1.81,7.28-2.93,12.98-3.35,17.1-.04.43-.35.79-.77.88-3.15.68-6.67,1.02-10.54,1.02-.5,0-.93-.01-1.29-.04-.56-.04-.97-.56-.89-1.12.4-3.09,1.68-8.47,3.82-16.12,2.38-8.51,3.57-14.11,3.57-16.8Z"/><path class="cls-4" d="M157.98,43.86c0,2.06-.58,5.23-1.74,9.51-1.16,4.28-1.74,7.07-1.74,8.36s.25,1.94.76,1.94c.22,0,.83-.14,1.47-.3,1.08-.26,2.2.3,2.62,1.34.09.22.18.45.27.66.18.49,0,1.03-.43,1.32-1.44.99-3.15,1.88-5.15,2.67-2.34.93-4.45,1.39-6.35,1.39s-3.39-.53-4.48-1.6c-1.09-1.06-1.63-2.6-1.63-4.62s.57-5.09,1.7-9.23c1.13-4.14,1.7-6.77,1.7-7.88,0-1.71-.6-3.33-1.8-4.86l-.27-.38c-.18-.25-.25-.56-.2-.86.08-.44.4-.8.84-.9,2.48-.59,6.72-.9,12.71-.92.4,0,.79.2.98.54.48.86.73,2.13.73,3.79Z"/><path class="cls-4" d="M152.85,35.31c-1.87,0-3.33-.57-4.38-1.72s-1.57-2.62-1.57-4.42.65-3.3,1.94-4.52,2.87-1.83,4.72-1.83,3.29.5,4.32,1.51c1.03,1.01,1.54,2.42,1.54,4.24s-.63,3.4-1.88,4.74c-1.26,1.34-2.82,2.01-4.69,2.01Z"/><path class="cls-4" d="M186.37,63.68c.15,0,.35-.03.57-.08,1.52-.36,3.1.41,3.74,1.84h0c.17.37.07.81-.24,1.07-1.11.94-2.68,1.85-4.73,2.72-2.38,1.02-4.48,1.53-6.28,1.53s-3.22-.38-4.23-1.15c-1.02-.76-1.87-2.09-2.57-3.99-.21-.48-.55-1.42-1.04-2.82-.25-.71-1.19-.84-1.62-.23-1.15,1.68-2.27,3.85-3.35,6.51-.44,1.08-1.58,1.67-2.72,1.41-.52-.12-1.09-.27-1.69-.47-.72-.24-1.36-.48-1.93-.75-.88-.41-1.17-1.51-.65-2.32,2.55-3.9,5.63-7.36,9.23-10.38.29-.24.41-.64.29-1-1.48-4.44-2.66-7.53-3.55-9.26-.35-.87-1.34-2.14-2.99-3.82-.21-.22-.31-.53-.25-.82h0c.07-.35.33-.62.67-.71,3.17-.78,7.24-1.27,12.22-1.45.13,0,.27,0,.38.06.42.2.89.65,1.41,1.35.6.81,1.06,1.75,1.39,2.81l.83,2.91c.22.77,1.25.9,1.67.22.26-.44.47-.81.63-1.11l.69-1.39c.46-.93.74-1.6.83-2.01.12-.52.25-1.01.38-1.47.27-.96,1.25-1.54,2.23-1.32,1.36.3,2.72.82,4.06,1.53h0c.5.27.69.89.41,1.39-2.13,3.8-4.95,7.33-8.46,10.58-.26.24-.36.61-.26.94,1.92,6.43,3.55,9.65,4.9,9.65Z"/><g class="cls-14"><rect class="cls-6" x="190.47" y="18.94" width="97.22" height="77.88" rx="12" ry="12"/></g><g class="cls-5"><rect class="cls-11" x="190.47" y="18.45" width="97.22" height="77.88" rx="12" ry="12"/></g><g class="cls-13"><rect class="cls-9" x="190.57" y="18.55" width="97.22" height="77.88" rx="12" ry="12"/></g><g class="cls-8"><ellipse class="cls-2" cx="44.82" cy="44.4" rx="51.05" ry="48.98"/></g><g class="cls-1"><ellipse class="cls-10" cx="44.12" cy="44.27" rx="51.05" ry="48.98"/></g><g class="cls-7"><ellipse class="cls-12" cx="46.68" cy="44.4" rx="51.05" ry="48.98"/></g></g></svg>