<svg width="229" height="53" viewBox="0 0 229 53" fill="none" xmlns="http://www.w3.org/2000/svg">
<path fill-rule="evenodd" clip-rule="evenodd" d="M26.5317 24.2483C27.7755 24.2483 28.7852 25.2566 28.7852 26.4985C28.7852 27.7403 27.7755 28.7486 26.5317 28.7486C25.288 28.7486 24.2782 27.7403 24.2782 26.4985C24.2782 25.2566 25.288 24.2483 26.5317 24.2483ZM35.2641 24.2496C36.5079 24.2496 37.5176 25.258 37.5176 26.4998C37.5176 27.7417 36.5079 28.75 35.2641 28.75C34.0204 28.75 33.0106 27.7417 33.0106 26.4998C33.0106 25.258 34.0203 24.2496 35.2641 24.2496ZM35.2641 33.3047C36.5079 33.3047 37.5176 34.313 37.5176 35.5548C37.5176 36.7966 36.5079 37.8049 35.2641 37.8049C34.0204 37.8049 33.0106 36.7966 33.0106 35.5548C33.0106 34.3129 34.0203 33.3047 35.2641 33.3047ZM26.5317 33.3047C27.7755 33.3047 28.7852 34.313 28.7852 35.5548C28.7852 36.7966 27.7755 37.8049 26.5317 37.8049C25.288 37.8049 24.2782 36.7966 24.2782 35.5548C24.2782 34.3129 25.288 33.3047 26.5317 33.3047ZM26.5317 41.6223C27.7755 41.6223 28.7852 42.6307 28.7852 43.8725C28.7852 45.1143 27.7755 46.1226 26.5317 46.1226C25.288 46.1226 24.2782 45.1143 24.2782 43.8725C24.2782 42.6306 25.288 41.6223 26.5317 41.6223ZM26.5317 15.3419C27.7755 15.3419 28.7852 16.3502 28.7852 17.592C28.7852 18.8339 27.7755 19.8422 26.5317 19.8422C25.288 19.8422 24.2782 18.8339 24.2782 17.592C24.2782 16.3502 25.288 15.3419 26.5317 15.3419ZM26.5317 7.02417C27.7755 7.02417 28.7852 8.03248 28.7852 9.27428C28.7852 10.5161 27.7755 11.5244 26.5317 11.5244C25.288 11.5244 24.2782 10.5161 24.2782 9.27428C24.2782 8.03243 25.288 7.02417 26.5317 7.02417ZM17.753 24.2483C18.9967 24.2483 20.0065 25.2566 20.0065 26.4984C20.0065 27.7403 18.9968 28.7485 17.753 28.7485C16.5093 28.7485 15.4995 27.7402 15.4995 26.4984C15.4995 25.2566 16.5093 24.2483 17.753 24.2483Z" fill="#38C4B9"/>
<path fill-rule="evenodd" clip-rule="evenodd" d="M51.2223 51.8186H44.452C44.0728 51.8186 43.7653 51.5117 43.7653 51.134V49.4555C43.7653 49.0775 44.0731 48.7709 44.452 48.7709H48.7732V39.0941C48.7732 38.7037 49.0911 38.3867 49.4828 38.3867H51.2223C51.614 38.3867 51.9319 38.7036 51.9319 39.0941V51.1114L51.9317 51.134C51.9317 51.512 51.6241 51.8184 51.2452 51.8184L51.2224 51.8186H51.2223ZM34.0373 44.2439H36.4906C37.043 44.2439 37.4913 44.6908 37.4913 45.2415V50.821C37.4913 51.3717 37.043 51.8186 36.4906 51.8186H34.0373C33.485 51.8186 33.0366 51.3717 33.0366 50.821V45.2415C33.0366 44.6909 33.4849 44.2439 34.0373 44.2439Z" fill="#38C4B9"/>
<path fill-rule="evenodd" clip-rule="evenodd" d="M34.9466 4.20239H48.8055V18.0576H34.9466V4.20239ZM4.19191 4.20239H18.0508V18.0576H4.19191V4.20239ZM4.18311 34.8556H18.042V48.7107H4.18311V34.8556Z" fill="#F1F4F5"/>
<path fill-rule="evenodd" clip-rule="evenodd" d="M37.6643 6.97125H46.0885V15.2889H37.6643V6.97125ZM6.90968 6.97125H15.3338V15.2889H6.90968V6.97125ZM6.90088 37.6244H15.325V45.9421H6.90088V37.6244Z" fill="#38C4BA"/>
<path fill-rule="evenodd" clip-rule="evenodd" d="M31.8292 20.4675V1.82381L31.8296 1.79298C31.8296 1.4078 32.1431 1.09479 32.5295 1.09479H51.2314C51.6178 1.09479 51.9318 1.40753 51.9318 1.79298V3.50448C51.9318 3.54193 51.9288 3.57891 51.923 3.61478V18.6457C51.9287 18.6815 51.9318 18.7183 51.9318 18.756V20.4675C51.9318 20.8527 51.6181 21.1657 51.2314 21.1657H32.5295C32.1431 21.1657 31.8292 20.8529 31.8292 20.4675ZM48.8057 4.20241H34.9467V18.0576H48.8057V4.20241Z" fill="#3E4245"/>
<path fill-rule="evenodd" clip-rule="evenodd" d="M1.07476 20.4675V1.82381L1.07518 1.79298C1.07518 1.4078 1.3887 1.09479 1.77509 1.09479H20.4771C20.8634 1.09479 21.1774 1.40753 21.1774 1.79298V3.50448C21.1774 3.54193 21.1744 3.57891 21.1686 3.61478V18.6457C21.1743 18.6815 21.1774 18.7183 21.1774 18.756V20.4675C21.1774 20.8527 20.8637 21.1657 20.4771 21.1657H1.77509C1.3887 21.1657 1.07476 20.8529 1.07476 20.4675ZM18.0513 4.20241H4.19234V18.0576H18.0513V4.20241Z" fill="#3E4245"/>
<path fill-rule="evenodd" clip-rule="evenodd" d="M1.06597 51.1206V32.477L1.06639 32.4461C1.06639 32.0609 1.37991 31.7479 1.7663 31.7479H20.4683C20.8547 31.7479 21.1686 32.0607 21.1686 32.4461V34.1576C21.1686 34.195 21.1656 34.232 21.1599 34.2679V49.2988C21.1655 49.3347 21.1686 49.3714 21.1686 49.4091V51.1206C21.1686 51.5058 20.8549 51.8188 20.4683 51.8188H1.7663C1.37991 51.8188 1.06597 51.5061 1.06597 51.1206ZM18.0425 34.8555H4.18355V48.7107H18.0425V34.8555Z" fill="#3E4245"/>
<path d="M160.736 21.7991H144.373V28.7933H160.736V21.7991Z" fill="#F1F4F5"/>
<path d="M190.229 33.1512H177.582V40.9751H190.229V33.1512Z" fill="#F1F4F5"/>
<path d="M82.4843 13.5191H64.311V29.6689H82.4843V13.5191Z" fill="#F1F4F5"/>
<path d="M157.56 13.0177C157.064 12.6297 156.74 12.0609 156.656 11.4312C156.572 10.8015 156.735 10.1601 157.109 9.64245C157.484 9.12463 158.042 8.77113 158.664 8.65625C159.287 8.54132 159.927 8.67421 160.448 9.02678C160.74 8.77554 161.075 8.57987 161.436 8.44987C161.815 8.31419 162.216 8.25483 162.616 8.27522C163.016 8.2956 163.407 8.39535 163.766 8.56874C164.126 8.74208 164.446 8.9857 164.711 9.28552C164.975 9.58535 165.177 9.93555 165.305 10.3162C165.427 10.679 165.481 11.0623 165.465 11.4466C166.065 11.6353 166.567 12.0526 166.863 12.6108C167.159 13.1689 167.227 13.8241 167.053 14.4383C166.878 15.0524 166.474 15.5775 165.927 15.9025C165.379 16.2277 164.731 16.3275 164.118 16.1809L162.199 20.1333L155.642 16.9703L157.56 13.0178V13.0177Z" fill="#F1F4F5" stroke="#3E4245" stroke-linecap="round" stroke-linejoin="round"/>
<path d="M156.718 14.7529L163.276 17.916" stroke="#3E4245" stroke-linecap="round" stroke-linejoin="round"/>
<path d="M153.671 45.7945C150.487 45.7945 147.681 45.1489 145.306 43.9115C142.931 42.6203 141.042 40.8986 139.747 38.6928C138.452 36.4869 137.75 33.9582 137.75 31.1067C137.75 28.2552 138.398 25.7266 139.693 23.5207C140.988 21.3148 142.769 19.5394 144.982 18.3019C147.249 17.0645 149.785 16.4189 152.646 16.4189C155.452 16.4189 157.989 17.0107 160.148 18.2481C162.361 19.4856 164.088 21.2072 165.329 23.4131C166.57 25.619 167.218 28.2552 167.218 31.2681C167.218 31.5371 167.218 31.86 167.164 32.2366C167.164 32.6132 167.11 32.936 167.056 33.2588H143.039V28.7933H163.44L160.795 30.1921C160.849 28.5243 160.472 27.0716 159.77 25.8342C159.068 24.5967 158.097 23.5745 156.856 22.8751C155.614 22.1757 154.211 21.7991 152.538 21.7991C150.919 21.7991 149.462 22.1757 148.22 22.8751C146.979 23.5745 146.007 24.5967 145.306 25.8342C144.604 27.1254 144.28 28.5781 144.28 30.2997V31.3758C144.28 33.0974 144.658 34.6039 145.468 35.9489C146.277 37.2401 147.357 38.3161 148.814 39.0156C150.271 39.7688 151.89 40.0916 153.833 40.0916C155.452 40.0916 156.909 39.8226 158.205 39.3384C159.5 38.8003 160.633 38.0471 161.659 36.9711L165.275 41.1138C163.98 42.6203 162.307 43.7501 160.364 44.5572C158.421 45.3642 156.154 45.7408 153.671 45.7408V45.7946L153.671 45.7945Z" fill="#38C4BA"/>
<path d="M190.641 45.418V39.6074L190.317 38.37V28.2015C190.317 26.2108 189.723 24.7044 188.536 23.6283C187.349 22.5523 185.514 21.9605 183.139 21.9605C181.52 21.9605 179.955 22.2295 178.39 22.7137C176.824 23.1979 175.529 23.8974 174.396 24.7582L171.751 19.8622C173.316 18.6786 175.151 17.8178 177.256 17.2259C179.415 16.6341 181.628 16.3113 183.949 16.3113C188.104 16.3113 191.343 17.3336 193.609 19.3243C195.876 21.3149 197.063 24.3816 197.063 28.5781V45.4181H190.641V45.418ZM181.628 45.7946C179.415 45.7946 177.526 45.418 175.907 44.7186C174.288 43.9653 173.046 42.9969 172.183 41.6519C171.319 40.3606 170.888 38.8541 170.888 37.2401C170.888 35.6261 171.265 34.1734 172.075 32.8822C172.885 31.591 174.126 30.5688 175.907 29.8155C177.688 29.0623 180.009 28.6857 182.923 28.6857H191.289V33.1513H183.409C181.088 33.1513 179.577 33.5279 178.767 34.2811C177.958 35.0343 177.58 35.9489 177.58 37.0249C177.58 38.2624 178.066 39.177 179.037 39.9302C180.009 40.6296 181.358 41.0062 183.085 41.0062C184.758 41.0062 186.269 40.6296 187.565 39.8764C188.86 39.1232 189.831 38.0472 190.371 36.5407L191.504 40.5759C190.857 42.2437 189.669 43.5888 187.996 44.5034C186.323 45.418 184.218 45.9023 181.682 45.9023L181.628 45.7946L181.628 45.7946Z" fill="#38C4BA"/>
<path d="M216.493 45.7945C213.308 45.7945 210.88 44.9875 209.153 43.3735C207.426 41.7594 206.562 39.3383 206.562 36.164V10.3931H213.308V36.0026C213.308 37.3477 213.686 38.4237 214.388 39.1769C215.089 39.9301 216.061 40.3067 217.356 40.3067C218.813 40.3067 220.109 39.9301 221.08 39.1231L223.023 43.9114C222.214 44.557 221.242 45.0412 220.055 45.3102C218.921 45.6331 217.734 45.7944 216.493 45.7944V45.7945ZM201.867 22.2832V16.9031H221.08V22.2832H201.867Z" fill="#38C4BA"/>
<path d="M151.044 26.7806L149.122 24.8643L147.199 26.7806" stroke="#3E4245" stroke-linecap="round" stroke-linejoin="round"/>
<path d="M158.063 26.7806L156.141 24.8643L154.218 26.7806" stroke="#3E4245" stroke-linecap="round" stroke-linejoin="round"/>
<path d="M57.928 45.7685V8.10736H73.4175C76.7637 8.10736 79.6241 8.6454 81.9988 9.72142C84.3735 10.7974 86.2625 12.3039 87.5578 14.3483C88.853 16.339 89.5007 18.76 89.5007 21.5578C89.5007 24.3016 88.853 26.6689 87.5578 28.7134C86.2625 30.7041 84.4275 32.2643 81.9988 33.3403C79.6241 34.4163 76.7097 34.9544 73.4175 34.9544H61.7599L64.8902 31.7262V45.8761H57.874L57.928 45.7685ZM64.9441 32.3719L61.8139 28.9824H73.1477C76.224 28.9824 78.5447 28.3368 80.1099 27.0456C81.6751 25.7544 82.4846 23.9251 82.4846 21.5578C82.4846 19.1906 81.675 17.3075 80.1099 16.0162C78.5447 14.725 76.224 14.0794 73.1477 14.0794H61.8139L64.9441 10.6899V32.4796V32.3719Z" fill="#3E4245"/>
<path d="M96.4627 45.7685V17.0385H103.209V45.7685H96.4627ZM99.8628 12.3039C98.6215 12.3039 97.5421 11.9273 96.7325 11.1203C95.923 10.367 95.4912 9.39865 95.4912 8.26879C95.4912 7.13898 95.923 6.17053 96.7325 5.41729C97.5421 4.66405 98.5675 4.23364 99.8628 4.23364C101.104 4.23364 102.184 4.61026 102.993 5.36345C103.803 6.11669 104.234 7.0313 104.234 8.16116C104.234 9.34481 103.857 10.3132 103.047 11.1202C102.237 11.9273 101.212 12.3039 99.9168 12.3039L99.8628 12.3039Z" fill="#3E4245"/>
<path d="M108.121 45.7685L120.804 29.3052L120.696 32.8561L108.606 16.9846H116.108L124.582 28.283H121.721L130.248 16.9846H137.534L125.337 32.8561L125.391 29.2514L138.074 45.7147H130.464L121.559 33.717L124.366 34.0936L115.622 45.7147H108.175L108.121 45.7685Z" fill="#3E4245"/>
</svg>
