<svg width="84" height="84" viewBox="0 0 84 84" fill="none" xmlns="http://www.w3.org/2000/svg">
<mask id="mask0_2047_5629" style="mask-type:luminance" maskUnits="userSpaceOnUse" x="51" y="30" width="19" height="13">
<path d="M51.0799 39.3284C51.1699 34.1984 55.8799 29.9784 60.8599 30.2884C65.5599 30.3784 69.7199 34.5784 69.4199 39.2684C69.3699 40.2284 68.5499 40.9684 67.5999 40.9184C66.6999 40.8784 65.9999 40.1584 65.9499 39.2784C65.7799 36.7284 63.3399 34.7584 60.8799 35.0384C58.6899 35.1984 56.8299 37.1884 57.1099 39.3084C57.3799 43.7684 50.8699 43.8084 51.0799 39.3284Z" fill="white"/>
</mask>
<g mask="url(#mask0_2047_5629)">
<path d="M44.82 93.3784C73.0142 93.3784 95.87 71.4493 95.87 44.3984C95.87 17.3475 73.0142 -4.58163 44.82 -4.58163C16.6259 -4.58163 -6.22998 17.3475 -6.22998 44.3984C-6.22998 71.4493 16.6259 93.3784 44.82 93.3784Z" fill="url(#paint0_linear_2047_5629)"/>
</g>
<mask id="mask1_2047_5629" style="mask-type:luminance" maskUnits="userSpaceOnUse" x="26" y="30" width="19" height="13">
<path d="M26.5399 39.3984C26.6299 34.2684 31.3399 30.0484 36.3199 30.3584C41.0199 30.4484 45.1799 34.6484 44.8799 39.3384C44.8299 40.2984 44.0099 41.0384 43.0599 40.9884C42.1599 40.9484 41.4599 40.2284 41.4099 39.3484C41.2399 36.7984 38.7999 34.8284 36.3399 35.1084C34.1499 35.2684 32.2899 37.2584 32.5699 39.3784C32.8399 43.8384 26.3299 43.8784 26.5399 39.3984Z" fill="white"/>
</mask>
<g mask="url(#mask1_2047_5629)">
<path d="M44.1198 93.2484C72.314 93.2484 95.1698 71.3193 95.1698 44.2684C95.1698 17.2175 72.314 -4.71162 44.1198 -4.71162C15.9257 -4.71162 -6.93018 17.2175 -6.93018 44.2684C-6.93018 71.3193 15.9257 93.2484 44.1198 93.2484Z" fill="url(#paint1_linear_2047_5629)"/>
</g>
<mask id="mask2_2047_5629" style="mask-type:luminance" maskUnits="userSpaceOnUse" x="-1" y="0" width="85" height="84">
<path d="M82.4399 31.7984C80.9899 23.3684 76.3199 15.5484 69.4899 10.4484C59.0099 1.24837 44.1199 -2.62163 30.1199 1.87837C25.0899 3.45837 20.3899 6.01837 16.3899 9.36837C13.3299 11.8384 10.9299 14.8984 8.54993 17.9784C1.17993 27.3484 -1.83007 40.1184 1.11993 51.7984C6.46993 74.2684 30.1499 88.2284 52.4699 82.2384C75.0199 76.3384 88.2199 54.0784 82.4399 31.7984ZM72.7599 40.0184C72.7099 40.5584 72.4099 41.9984 72.3499 42.5384C72.0699 43.5184 71.7799 44.8784 71.3699 45.8084C71.1099 46.7684 70.3999 48.0484 70.0199 48.9684C65.1999 58.3384 54.5499 63.5984 44.1499 61.7984C34.5799 60.2584 26.5199 53.0484 23.7199 43.7784C22.1899 38.9484 22.1199 33.6284 23.5099 28.6084C23.7299 27.8184 23.3199 26.9584 22.5399 26.6584C21.6999 26.3284 20.7599 26.7384 20.4299 27.5784C19.2599 30.5184 18.6099 33.6584 18.4599 36.8284C16.3599 37.2684 14.2799 38.0284 12.3599 39.2984C8.15993 41.9584 6.71993 46.9184 10.7199 50.5384C13.8199 53.2784 18.2899 53.6384 22.0599 52.9284C22.6699 54.0684 23.3499 55.1684 24.0999 56.2184C24.4699 56.8684 25.7399 58.2984 26.1999 58.8984C26.8999 59.7384 27.8399 60.5484 28.5899 61.3484C29.4299 62.0084 30.3799 62.9184 31.2499 63.5184C31.9499 63.9584 33.3999 65.0384 34.1399 65.3784C34.6399 65.6584 35.6699 66.1984 36.1699 66.4784C37.2099 66.8984 38.3099 67.4484 39.3699 67.7984C40.1599 68.0284 41.8999 68.6584 42.6999 68.7784C43.2599 68.9084 44.4099 69.1284 44.9799 69.2584C46.1399 69.3984 47.2999 69.5484 48.4599 69.6284C51.5399 69.7984 54.5499 69.5084 57.4499 68.8384C39.1599 80.0884 14.3199 71.1784 7.64993 49.9884C4.44993 40.0984 5.60993 28.7684 11.2399 19.8684C18.5999 9.24837 32.5799 3.86837 45.1799 5.94837C53.0699 7.12837 60.3199 11.2484 65.5699 17.1184C65.7399 17.3384 65.9199 17.5484 66.0799 17.7684C70.3999 23.5584 73.0199 30.6484 72.9399 37.8984C72.8999 38.4984 72.7999 39.4184 72.7699 40.0184H72.7599ZM19.5699 46.6584C17.2199 47.3884 14.1499 47.5984 12.8299 45.4984C12.6099 45.0584 12.7499 44.4984 12.9799 43.9884C14.0599 41.8784 16.1999 40.4184 18.4499 39.4084C18.4799 40.1884 18.5499 40.9684 18.6299 41.7384L15.1499 43.7484C14.9399 43.8684 14.8199 44.1184 14.8799 44.3684C14.9499 44.6784 15.2599 44.8684 15.5699 44.8084L18.9899 44.0384C19.1499 44.9184 19.3399 45.7984 19.5799 46.6584H19.5699Z" fill="white"/>
</mask>
<g mask="url(#mask2_2047_5629)">
<path d="M46.6799 93.3784C74.874 93.3784 97.7299 71.4493 97.7299 44.3984C97.7299 17.3475 74.874 -4.58163 46.6799 -4.58163C18.4857 -4.58163 -4.37012 17.3475 -4.37012 44.3984C-4.37012 71.4493 18.4857 93.3784 46.6799 93.3784Z" fill="url(#paint2_linear_2047_5629)"/>
</g>
<defs>
<linearGradient id="paint0_linear_2047_5629" x1="-5.65998" y1="50.5884" x2="90.73" y2="38.7684" gradientUnits="userSpaceOnUse">
<stop stop-color="#78C6C0"/>
<stop offset="0.53" stop-color="#4CBBB6"/>
<stop offset="0.71" stop-color="#49B7B3"/>
<stop offset="0.85" stop-color="#3FADAA"/>
<stop offset="0.98" stop-color="#2F9D9C"/>
<stop offset="1" stop-color="#2C9999"/>
</linearGradient>
<linearGradient id="paint1_linear_2047_5629" x1="-6.36018" y1="50.4584" x2="90.0198" y2="38.6384" gradientUnits="userSpaceOnUse">
<stop stop-color="#78C6C0"/>
<stop offset="0.53" stop-color="#4CBBB6"/>
<stop offset="0.71" stop-color="#49B7B3"/>
<stop offset="0.85" stop-color="#3FADAA"/>
<stop offset="0.98" stop-color="#2F9D9C"/>
<stop offset="1" stop-color="#2C9999"/>
</linearGradient>
<linearGradient id="paint2_linear_2047_5629" x1="-3.80012" y1="50.5884" x2="92.5799" y2="38.7684" gradientUnits="userSpaceOnUse">
<stop stop-color="#78C6C0"/>
<stop offset="0.53" stop-color="#4CBBB6"/>
<stop offset="0.71" stop-color="#49B7B3"/>
<stop offset="0.85" stop-color="#3FADAA"/>
<stop offset="0.98" stop-color="#2F9D9C"/>
<stop offset="1" stop-color="#2C9999"/>
</linearGradient>
</defs>
</svg>
