<svg width="51" height="51" viewBox="0 0 51 51" fill="none" xmlns="http://www.w3.org/2000/svg">
<path fill-rule="evenodd" clip-rule="evenodd" d="M25.4658 23.1536C26.7095 23.1536 27.7193 24.1619 27.7193 25.4038C27.7193 26.6456 26.7095 27.6539 25.4658 27.6539C24.2221 27.6539 23.2123 26.6456 23.2123 25.4038C23.2123 24.1619 24.2221 23.1536 25.4658 23.1536ZM34.1982 23.1549C35.4419 23.1549 36.4517 24.1632 36.4517 25.4051C36.4517 26.6469 35.442 27.6552 34.1982 27.6552C32.9545 27.6552 31.9447 26.6469 31.9447 25.4051C31.9447 24.1632 32.9544 23.1549 34.1982 23.1549ZM34.1982 32.2099C35.4419 32.2099 36.4517 33.2182 36.4517 34.46C36.4517 35.7019 35.442 36.7102 34.1982 36.7102C32.9545 36.7102 31.9447 35.7019 31.9447 34.46C31.9447 33.2182 32.9544 32.2099 34.1982 32.2099ZM25.4658 32.2099C26.7095 32.2099 27.7193 33.2182 27.7193 34.46C27.7193 35.7019 26.7095 36.7102 25.4658 36.7102C24.2221 36.7102 23.2123 35.7019 23.2123 34.46C23.2123 33.2182 24.2221 32.2099 25.4658 32.2099ZM25.4658 40.5276C26.7095 40.5276 27.7193 41.5359 27.7193 42.7777C27.7193 44.0196 26.7095 45.0278 25.4658 45.0278C24.2221 45.0278 23.2123 44.0195 23.2123 42.7777C23.2123 41.5359 24.2221 40.5276 25.4658 40.5276ZM25.4658 14.2471C26.7095 14.2471 27.7193 15.2554 27.7193 16.4973C27.7193 17.7391 26.7095 18.7475 25.4658 18.7475C24.2221 18.7475 23.2123 17.7391 23.2123 16.4973C23.2123 15.2554 24.2221 14.2471 25.4658 14.2471ZM25.4658 5.92944C26.7095 5.92944 27.7193 6.93776 27.7193 8.17955C27.7193 9.4214 26.7095 10.4297 25.4658 10.4297C24.2221 10.4297 23.2123 9.4214 23.2123 8.17955C23.2123 6.9377 24.2221 5.92944 25.4658 5.92944ZM16.6871 23.1535C17.9308 23.1535 18.9406 24.1619 18.9406 25.4037C18.9406 26.6456 17.9309 27.6538 16.6871 27.6538C15.4433 27.6538 14.4336 26.6455 14.4336 25.4037C14.4336 24.1619 15.4433 23.1535 16.6871 23.1535Z" fill="#38C4B9"/>
<path fill-rule="evenodd" clip-rule="evenodd" d="M50.1563 50.7238H43.3861C43.0069 50.7238 42.6993 50.417 42.6993 50.0393V48.3608C42.6993 47.9828 43.0072 47.6762 43.3861 47.6762H47.7073V37.9994C47.7073 37.6089 48.0252 37.292 48.4169 37.292H50.1564C50.548 37.292 50.866 37.6089 50.866 37.9994V50.0167L50.8658 50.0393C50.8658 50.4172 50.5582 50.7236 50.1793 50.7236L50.1564 50.7238H50.1563ZM32.9714 43.1492H35.4247C35.977 43.1492 36.4254 43.5961 36.4254 44.1468V49.7263C36.4254 50.2769 35.9771 50.7239 35.4247 50.7239H32.9714C32.4191 50.7239 31.9707 50.277 31.9707 49.7263V44.1468C31.9707 43.5962 32.419 43.1492 32.9714 43.1492Z" fill="#38C4B9"/>
<path fill-rule="evenodd" clip-rule="evenodd" d="M33.8806 3.10767H47.7396V16.9628H33.8806V3.10767ZM3.12599 3.10767H16.9849V16.9628H3.12599V3.10767ZM3.11719 33.7608H16.9761V47.616H3.11719V33.7608Z" fill="#F1F4F5"/>
<path fill-rule="evenodd" clip-rule="evenodd" d="M36.5984 5.87653H45.0226V14.1942H36.5984V5.87653ZM5.84376 5.87653H14.2679V14.1942H5.84376V5.87653ZM5.83496 36.5297H14.2591V44.8474H5.83496V36.5297Z" fill="#38C4BA"/>
<path fill-rule="evenodd" clip-rule="evenodd" d="M30.7632 19.3727V0.729087L30.7637 0.698253C30.7637 0.313071 31.0772 6.10352e-05 31.4636 6.10352e-05H50.1655C50.5519 6.10352e-05 50.8659 0.312808 50.8659 0.698253V2.40975C50.8659 2.4472 50.8629 2.48418 50.8571 2.52006V17.5509C50.8628 17.5868 50.8659 17.6236 50.8659 17.6612V19.3727C50.8659 19.7579 50.5522 20.0709 50.1655 20.0709H31.4636C31.0772 20.0709 30.7632 19.7582 30.7632 19.3727ZM47.7397 3.10768H33.8808V16.9628H47.7397V3.10768Z" fill="#3E4245"/>
<path fill-rule="evenodd" clip-rule="evenodd" d="M0.00884173 19.3727V0.729087L0.00926323 0.698253C0.00926323 0.313071 0.322781 6.10352e-05 0.709173 6.10352e-05H19.4111C19.7975 6.10352e-05 20.1115 0.312808 20.1115 0.698253V2.40975C20.1115 2.4472 20.1085 2.48418 20.1027 2.52006V17.5509C20.1084 17.5868 20.1115 17.6236 20.1115 17.6612V19.3727C20.1115 19.7579 19.7978 20.0709 19.4111 20.0709H0.709173C0.322781 20.0709 0.00884173 19.7582 0.00884173 19.3727ZM16.9853 3.10768H3.12642V16.9628H16.9853V3.10768Z" fill="#3E4245"/>
<path fill-rule="evenodd" clip-rule="evenodd" d="M5.26632e-05 50.0259V31.3822L0.00047417 31.3514C0.00047417 30.9662 0.313992 30.6532 0.700384 30.6532H19.4023C19.7887 30.6532 20.1027 30.9659 20.1027 31.3514V33.0629C20.1027 33.1003 20.0997 33.1373 20.0939 33.1732V48.2041C20.0996 48.24 20.1027 48.2767 20.1027 48.3144V50.0259C20.1027 50.4111 19.789 50.7241 19.4023 50.7241H0.700384C0.313992 50.7241 5.26632e-05 50.4113 5.26632e-05 50.0259ZM16.9766 33.7608H3.11763V47.616H16.9766V33.7608Z" fill="#3E4245"/>
</svg>
